PathFileType	4	(X/Y/Z)	Run_200 02
DataRate	CameraRate	NumFrames	NumMarkers	Units	OrigDataRate	OrigDataStartFrame	OrigNumFrames
100	100	4	42	mm	100	391	128
Frame#	Time	RASI			LPSI			RPSI			RTH1			RTH2			RTH3			LTH1			LTH2			LTH3			RTB1			RTB2			RTB3			LTB1			LTB2			LTB3			RCAL			RTOE			RMT5			LCAL			LTOE			LMT5			LACR			RACR			C7			RUA1			RUA2			RUA3			RLEL			RMEL			LUA2			LUA3			LLEL			LMEL			RFAsuperior			RFAradius			RFAulna			LFAsuperior			LFAradius			LFAulna			LUA1			CLAV			LASI		
		X1	Y1	Z1	X2	Y2	Z2	X3	Y3	Z3	X4	Y4	Z4	X5	Y5	Z5	X6	Y6	Z6	X7	Y7	Z7	X8	Y8	Z8	X9	Y9	Z9	X10	Y10	Z10	X11	Y11	Z11	X12	Y12	Z12	X13	Y13	Z13	X14	Y14	Z14	X15	Y15	Z15	X16	Y16	Z16	X17	Y17	Z17	X18	Y18	Z18	X19	Y19	Z19	X20	Y20	Z20	X21	Y21	Z21	X22	Y22	Z22	X23	Y23	Z23	X24	Y24	Z24	X25	Y25	Z25	X26	Y26	Z26	X27	Y27	Z27	X28	Y28	Z28	X29	Y29	Z29	X30	Y30	Z30	X31	Y31	Z31	X32	Y32	Z32	X33	Y33	Z33	X34	Y34	Z34	X35	Y35	Z35	X36	Y36	Z36	X37	Y37	Z37	X38	Y38	Z38	X39	Y39	Z39	X40	Y40	Z40	X41	Y41	Z41	X42	Y42	Z42	

391	  3.910000	1110.192909	1049.937778	-198.572451	960.769267	1090.679939	-386.604706	947.870181	1092.757609	-294.244110	1097.528699	882.725272	-141.768235	1169.699869	800.331630	-156.007326	1147.984917	657.834435	-178.867979	1036.187360	884.299496	-510.556637	1058.667436	745.960601	-482.732672	946.746819	654.536263	-479.353961	1202.763393	399.752322	-249.147729	1132.284141	307.161553	-215.849861	1149.107363	233.397178	-279.434638	865.227986	376.596074	-405.192427	805.747965	339.264574	-447.118535	784.638720	262.969165	-390.104108	1015.504713	144.926035	-297.495528	1250.169428	118.145792	-283.721662	1223.336027	 90.926834	-211.946321	622.854676	212.295266	-371.301696	809.387656	 71.243577	-342.906586	777.681332	 61.394029	-428.782451	1137.274026	1560.484216	-508.058282	1087.331873	1549.620806	-167.937429	1053.725073	1586.686143	-350.236691	981.670303	1463.167023	-99.701170	919.360136	1480.977090	-127.190159	899.226169	1414.092951	-96.171632	833.606123	1360.933272	-87.544720	819.743444	1366.605778	-180.461286	1034.254787	1382.847227	-594.372565	1084.386419	1312.700067	-609.407750	1075.518068	1242.876636	-621.439914	1015.135831	1233.676991	-549.787715	906.941945	1313.171511	-87.131716	1046.482105	1224.601844	-140.814133	998.863186	1174.412491	-123.514417	1151.585796	1234.088351	-576.779866	1261.953688	1267.880707	-440.495217	1273.597762	1197.979468	-452.140257	1110.317012	1438.616873	-588.097819	1157.999488	1497.395278	-297.538534	1113.404059	1047.963831	-459.903506	
392	  3.920000	1112.240076	1054.070626	-199.553290	963.551397	1094.223607	-387.071274	950.275883	1096.833864	-294.544226	1098.549976	886.234953	-141.204245	1168.177943	802.148475	-156.444112	1142.855925	659.712112	-180.160200	1037.670650	887.305603	-510.242893	1057.068356	748.626942	-480.961508	943.222569	659.563044	-478.654037	1209.439492	402.052801	-250.398127	1146.563253	304.229775	-216.983212	1168.321480	232.253094	-280.973841	856.347123	383.309421	-405.346130	796.507274	346.798401	-447.651539	774.874213	270.080372	-391.080481	1041.658367	133.638537	-298.387704	1277.808498	125.552178	-287.683141	1254.166398	 95.337346	-215.956802	614.477689	224.159077	-372.629484	792.733687	 72.796085	-343.725812	760.471531	 63.709900	-429.322914	1138.088386	1566.375156	-505.839841	1088.250551	1553.730450	-167.043356	1053.425593	1590.836972	-348.998962	982.982034	1468.275444	-98.365106	921.090643	1486.353026	-125.708312	900.701233	1418.969263	-94.640812	834.240027	1365.909340	-87.130145	820.063706	1373.202753	-180.139307	1035.189519	1390.411380	-593.509838	1085.979446	1320.495861	-609.832705	1076.958055	1250.256768	-621.701604	1015.589203	1240.946889	-550.898853	907.717688	1319.118565	-87.369555	1047.739633	1231.741981	-141.268134	1000.727473	1180.913890	-124.410264	1152.258283	1241.664180	-575.892025	1260.268596	1276.028938	-438.078807	1272.854397	1205.982869	-448.587267	1112.242077	1445.321009	-586.981402	1158.221733	1502.263988	-296.005218	1115.758511	1052.234978	-460.861768	
393	  3.930000	1114.141720	1057.291620	-200.973288	966.170289	1097.047294	-387.172361	952.545455	1100.047022	-294.592056	1099.276114	888.302660	-140.657508	1166.301191	802.563895	-156.581554	1137.330154	660.305148	-180.956477	1039.556241	889.883190	-510.080952	1056.218649	750.997725	-479.311496	940.944255	663.950543	-478.089917	1215.037907	404.040439	-251.981268	1159.818812	301.796753	-218.183651	1186.066686	231.810116	-282.581586	848.831449	389.282587	-405.619086	788.618631	353.774409	-448.418363	766.009212	276.809777	-392.181642	1066.845578	123.903220	-299.293597	1302.950839	133.984003	-291.549331	1282.714610	101.194510	-219.810740	606.936101	235.950084	-374.200447	776.794930	 74.641731	-344.711751	743.710480	 66.436598	-429.936985	1138.849257	1571.123212	-503.759772	1089.372905	1556.866947	-166.060020	1053.308919	1594.098695	-347.699754	984.574340	1471.835955	-96.851049	923.023128	1489.793624	-124.480858	902.410852	1422.356352	-93.261441	835.411730	1369.216298	-86.475647	820.936149	1377.772429	-179.617702	1035.941132	1397.054090	-592.601727	1086.909399	1327.390676	-610.550453	1077.566416	1256.637656	-622.193447	1015.766682	1247.418145	-552.036158	909.097632	1323.232349	-87.631555	1049.446326	1237.035263	-141.864022	1003.206414	1185.487980	-125.161893	1152.163179	1247.959875	-575.413224	1258.308191	1282.210105	-436.228834	1271.786239	1212.051827	-446.215541	1113.060350	1451.600357	-586.039918	1158.409563	1505.940592	-294.668640	1117.967492	1055.594297	-462.259186	
394	  3.940000	1116.020566	1059.474001	-201.956966	968.540249	1099.154316	-387.124921	954.667713	1102.412571	-294.626985	1099.748460	889.012259	-140.124215	1164.496332	801.778914	-156.532295	1132.026022	659.862765	-181.243035	1041.812012	891.919583	-510.032863	1056.232697	752.929246	-477.694821	939.969526	667.479799	-477.640879	1219.586330	405.653451	-253.602100	1171.640190	299.857833	-219.387909	1201.942694	231.937206	-284.118459	842.755531	394.196280	-406.048498	782.126461	359.918427	-449.369297	758.048811	282.907684	-393.426167	1090.318792	115.887862	-300.255845	1325.146222	142.896667	-294.982645	1308.230406	107.994003	-223.324856	600.177651	247.428628	-376.139547	761.654402	 76.531405	-345.957455	727.481759	 69.395481	-430.675356	1139.439190	1574.556216	-501.809200	1090.621935	1558.914376	-164.919524	1053.426937	1596.429919	-346.318307	986.246889	1473.663575	-95.333411	924.883701	1491.289718	-123.543908	904.222200	1424.167637	-92.086457	837.038988	1370.765853	-85.678377	822.314607	1379.987673	-178.948309	1036.549728	1402.574526	-591.757389	1087.256465	1333.125505	-611.480950	1077.426170	1261.824977	-622.904821	1015.444591	1252.893157	-553.223404	911.028559	1325.388268	-87.839945	1051.572073	1240.385594	-142.536429	1006.281288	1188.034196	-125.780138	1151.378489	1252.755399	-575.324236	1256.048396	1286.216297	-434.715577	1270.201920	1215.961242	-444.802268	1113.090650	1457.174971	-585.265668	1158.610082	1508.309264	-293.584364	1120.153664	1057.915054	-463.220288	
